<svg width="32" height="33" viewBox="0 0 32 33" fill="none" xmlns="http://www.w3.org/2000/svg">
<g id="Upload image">
<path id="Vector" d="M22.186 17.9265C21.9335 17.9265 21.6913 18.0269 21.5128 18.2055C21.3342 18.3842 21.2339 18.6265 21.2339 18.8791V19.2411L19.8248 17.8313C19.3272 17.3374 18.6547 17.0603 17.9538 17.0603C17.253 17.0603 16.5805 17.3374 16.0829 17.8313L15.4164 18.4981L13.0552 16.1356C12.5507 15.6551 11.8808 15.3872 11.1843 15.3872C10.4877 15.3872 9.81788 15.6551 9.31337 16.1356L7.90424 17.5455V12.2109C7.90424 11.9582 8.00455 11.7159 8.18311 11.5373C8.36166 11.3586 8.60384 11.2583 8.85635 11.2583H15.5212C15.7737 11.2583 16.0159 11.1579 16.1944 10.9793C16.373 10.8006 16.4733 10.5583 16.4733 10.3057C16.4733 10.053 16.373 9.81073 16.1944 9.63208C16.0159 9.45343 15.7737 9.35307 15.5212 9.35307H8.85635C8.0988 9.35307 7.37228 9.65416 6.83661 10.1901C6.30094 10.7261 6 11.453 6 12.2109V23.6422C6 24.4001 6.30094 25.127 6.83661 25.663C7.37228 26.1989 8.0988 26.5 8.85635 26.5H20.2818C21.0393 26.5 21.7658 26.1989 22.3015 25.663C22.8372 25.127 23.1381 24.4001 23.1381 23.6422V18.8791C23.1381 18.6265 23.0378 18.3842 22.8593 18.2055C22.6807 18.0269 22.4385 17.9265 22.186 17.9265ZM8.85635 24.5948C8.60384 24.5948 8.36166 24.4944 8.18311 24.3158C8.00455 24.1371 7.90424 23.8948 7.90424 23.6422V20.2414L10.6654 17.4788C10.8053 17.3454 10.9911 17.2711 11.1843 17.2711C11.3775 17.2711 11.5633 17.3454 11.7032 17.4788L14.7214 20.4986L18.8155 24.5948H8.85635ZM21.2339 23.6422C21.2325 23.8245 21.1724 24.0016 21.0625 24.1471L16.7685 19.8317L17.4349 19.1649C17.5032 19.0952 17.5847 19.0398 17.6746 19.002C17.7645 18.9642 17.8611 18.9448 17.9586 18.9448C18.0561 18.9448 18.1527 18.9642 18.2426 19.002C18.3325 19.0398 18.414 19.0952 18.4823 19.1649L21.2339 21.937V23.6422ZM25.7184 9.62933L22.862 6.77151C22.7715 6.68478 22.6647 6.6168 22.5478 6.57146C22.316 6.47618 22.056 6.47618 21.8242 6.57146C21.7073 6.6168 21.6006 6.68478 21.51 6.77151L18.6536 9.62933C18.4744 9.80871 18.3736 10.052 18.3736 10.3057C18.3736 10.5594 18.4744 10.8026 18.6536 10.982C18.8329 11.1614 19.0761 11.2622 19.3297 11.2622C19.5832 11.2622 19.8264 11.1614 20.0057 10.982L21.2339 9.74364V15.0687C21.2339 15.3214 21.3342 15.5637 21.5128 15.7423C21.6913 15.921 21.9335 16.0213 22.186 16.0213C22.4385 16.0213 22.6807 15.921 22.8593 15.7423C23.0378 15.5637 23.1381 15.3214 23.1381 15.0687V9.74364L24.3664 10.982C24.4549 11.0713 24.5602 11.1422 24.6762 11.1905C24.7922 11.2389 24.9167 11.2638 25.0424 11.2638C25.1681 11.2638 25.2925 11.2389 25.4085 11.1905C25.5245 11.1422 25.6299 11.0713 25.7184 10.982C25.8076 10.8935 25.8784 10.7881 25.9268 10.672C25.9751 10.5559 26 10.4314 26 10.3057C26 10.1799 25.9751 10.0554 25.9268 9.93933C25.8784 9.82324 25.8076 9.71788 25.7184 9.62933Z" fill="#29354D"/>
</g>
</svg>